<svg width="343" height="192" viewBox="0 0 343 192" fill="none" xmlns="http://www.w3.org/2000/svg">
<g clip-path="url(#clip0_699_5918)">
<rect width="343" height="192" rx="2" fill="#EEEEEE"/>
<circle cx="172" cy="83" r="23" stroke="black" stroke-width="2"/>
<path d="M172 72.7144L172 93.2858" stroke="black" stroke-width="2" stroke-linecap="round"/>
<path d="M182.286 83L161.714 83" stroke="black" stroke-width="2" stroke-linecap="round"/>
<path d="M126.615 128L131.763 115.22H133.365L138.513 128H136.893L135.471 124.364H129.603L128.181 128H126.615ZM132.537 116.894L130.143 122.978H134.913L132.537 116.894ZM144.045 128.27C141.399 128.27 139.689 125.912 139.689 123.374C139.689 120.836 141.381 118.442 144.117 118.442C145.503 118.442 146.691 119.09 147.393 120.296V114.644H148.833V128H147.537L147.465 126.236C146.745 127.55 145.539 128.27 144.045 128.27ZM141.165 123.356C141.165 124.274 141.417 125.246 142.065 125.93C142.623 126.596 143.433 126.956 144.297 126.956C146.277 126.956 147.429 125.246 147.429 123.356C147.429 122.402 147.177 121.502 146.547 120.764C145.935 120.116 145.197 119.756 144.297 119.756C142.317 119.756 141.165 121.484 141.165 123.356ZM155.422 128.27C152.776 128.27 151.066 125.912 151.066 123.374C151.066 120.836 152.758 118.442 155.494 118.442C156.88 118.442 158.068 119.09 158.77 120.296V114.644H160.21V128H158.914L158.842 126.236C158.122 127.55 156.916 128.27 155.422 128.27ZM152.542 123.356C152.542 124.274 152.794 125.246 153.442 125.93C154 126.596 154.81 126.956 155.674 126.956C157.654 126.956 158.806 125.246 158.806 123.356C158.806 122.402 158.554 121.502 157.924 120.764C157.312 120.116 156.574 119.756 155.674 119.756C153.694 119.756 152.542 121.484 152.542 123.356ZM168.469 128H167.029V118.712H168.469V128ZM167.749 116.984C167.227 116.984 166.759 116.516 166.759 115.994C166.759 115.454 167.209 115.004 167.749 115.004C168.307 115.004 168.739 115.418 168.739 115.994C168.739 116.534 168.289 116.984 167.749 116.984ZM171.164 118.712H172.46L172.532 120.134C173.108 119.018 174.17 118.442 175.412 118.442C176.816 118.442 177.878 119.198 178.382 120.494C178.904 119.18 180.164 118.442 181.568 118.442C183.926 118.442 184.952 120.278 184.952 122.492V128H183.512V122.582C183.512 121.124 183.026 119.756 181.334 119.756C179.84 119.756 178.778 120.926 178.778 122.42V128H177.338V122.582C177.338 121.106 176.798 119.756 175.124 119.756C173.612 119.756 172.604 120.926 172.604 122.42V128H171.164V118.712ZM187.136 125.39C187.136 123.266 189.08 122.402 190.97 122.402C191.762 122.402 192.77 122.582 193.472 122.924V122.24C193.472 120.818 192.644 119.72 191.132 119.72C190.088 119.72 189.152 120.242 188.738 121.232L187.478 120.8C188 119.252 189.602 118.46 191.15 118.46C193.418 118.46 194.858 119.972 194.858 122.276V128H193.598L193.508 126.56C192.914 127.712 191.726 128.27 190.466 128.27C188.756 128.27 187.136 127.28 187.136 125.39ZM188.594 125.336C188.594 126.524 189.656 127.064 190.736 127.064C192.248 127.064 193.472 125.948 193.472 124.382V124.04C192.716 123.734 191.942 123.536 191.132 123.536C189.998 123.536 188.594 123.968 188.594 125.336ZM197.019 123.194C197.019 120.71 198.747 118.442 201.393 118.442C202.761 118.442 204.021 119.108 204.687 120.332L204.759 118.712H206.055V127.208C206.055 129.89 204.417 131.942 201.555 131.942C199.863 131.942 198.423 131.24 197.523 129.746L198.729 129.134C199.395 130.124 200.349 130.7 201.555 130.7C203.589 130.7 204.615 129.224 204.615 127.262V126.074C203.913 127.262 202.707 127.91 201.321 127.91C198.747 127.91 197.019 125.696 197.019 123.194ZM198.495 123.176C198.495 124.976 199.629 126.596 201.573 126.596C203.481 126.596 204.651 125.03 204.651 123.176C204.651 121.358 203.553 119.756 201.573 119.756C199.665 119.756 198.495 121.322 198.495 123.176ZM208.29 123.374C208.29 120.8 209.982 118.46 212.736 118.46C215.31 118.46 217.002 120.494 217.002 123.05V123.644H209.784C209.928 125.444 210.936 126.992 212.934 126.992C214.068 126.992 214.986 126.506 215.598 125.534L216.822 126.092C216.066 127.532 214.572 128.27 212.97 128.27C210.18 128.27 208.29 126.164 208.29 123.374ZM212.736 119.684C211.116 119.684 210.108 121.016 209.856 122.528H215.49C215.346 121.016 214.392 119.684 212.736 119.684Z" fill="#1B1B1B"/>
</g>
<defs>
<clipPath id="clip0_699_5918">
<rect width="343" height="192" rx="10" fill="white"/>
</clipPath>
</defs>
</svg>
