<svg width="64" height="64" viewBox="0 0 64 64" fill="none" xmlns="http://www.w3.org/2000/svg">
<g id="Objects &#38; Things/home-alt">
<path id="Vector" d="M53.3333 21.3333L37.3333 7.30668C35.8666 5.9948 33.9678 5.26953 32 5.26953C30.0322 5.26953 28.1334 5.9948 26.6667 7.30668L10.6667 21.3333C9.81966 22.0909 9.14374 23.0202 8.68393 24.0593C8.22413 25.0985 7.99098 26.2237 8.00001 27.36V50.6667C8.00001 52.7884 8.84286 54.8232 10.3432 56.3235C11.8434 57.8238 13.8783 58.6667 16 58.6667H48C50.1217 58.6667 52.1566 57.8238 53.6569 56.3235C55.1572 54.8232 56 52.7884 56 50.6667V27.3333C56.0053 26.2015 55.7703 25.0815 55.3106 24.0472C54.8509 23.0129 54.177 22.0879 53.3333 21.3333ZM37.3333 53.3333H26.6667V40C26.6667 39.2928 26.9476 38.6145 27.4477 38.1144C27.9478 37.6143 28.6261 37.3333 29.3333 37.3333H34.6667C35.3739 37.3333 36.0522 37.6143 36.5523 38.1144C37.0524 38.6145 37.3333 39.2928 37.3333 40V53.3333ZM50.6667 50.6667C50.6667 51.3739 50.3857 52.0522 49.8856 52.5523C49.3855 53.0524 48.7072 53.3333 48 53.3333H42.6667V40C42.6667 37.8783 41.8238 35.8434 40.3235 34.3432C38.8232 32.8429 36.7884 32 34.6667 32H29.3333C27.2116 32 25.1768 32.8429 23.6765 34.3432C22.1762 35.8434 21.3333 37.8783 21.3333 40V53.3333H16C15.2928 53.3333 14.6145 53.0524 14.1144 52.5523C13.6143 52.0522 13.3333 51.3739 13.3333 50.6667V27.3333C13.3338 26.9547 13.4149 26.5805 13.5713 26.2357C13.7276 25.8908 13.9556 25.5832 14.24 25.3333L30.24 11.3333C30.7266 10.9058 31.3523 10.6701 32 10.6701C32.6478 10.6701 33.2734 10.9058 33.76 11.3333L49.76 25.3333C50.0445 25.5832 50.2724 25.8908 50.4288 26.2357C50.5851 26.5805 50.6662 26.9547 50.6667 27.3333V50.6667Z" fill="#929292"/>
</g>
</svg>
