<svg width="64" height="64" viewBox="0 0 64 64" fill="none" xmlns="http://www.w3.org/2000/svg">
<g id="Objects &#38; Things/utensils">
<path id="Vector" d="M50.6667 5.33337C49.9595 5.33337 49.2812 5.61433 48.7811 6.11442C48.281 6.61452 48.0001 7.2928 48.0001 8.00004V22.56L45.3334 24.3467V8.00004C45.3334 7.2928 45.0525 6.61452 44.5524 6.11442C44.0523 5.61433 43.374 5.33337 42.6667 5.33337C41.9595 5.33337 41.2812 5.61433 40.7811 6.11442C40.281 6.61452 40.0001 7.2928 40.0001 8.00004V24.3467L37.3334 22.56V8.00004C37.3334 7.2928 37.0525 6.61452 36.5524 6.11442C36.0523 5.61433 35.374 5.33337 34.6667 5.33337C33.9595 5.33337 33.2812 5.61433 32.7811 6.11442C32.281 6.61452 32.0001 7.2928 32.0001 8.00004V24C32.0024 24.4393 32.1131 24.8711 32.3224 25.2572C32.5318 25.6434 32.8333 25.9718 33.2001 26.2134L40.0001 30.7734V56C40.0001 56.7073 40.281 57.3856 40.7811 57.8857C41.2812 58.3858 41.9595 58.6667 42.6667 58.6667C43.374 58.6667 44.0523 58.3858 44.5524 57.8857C45.0525 57.3856 45.3334 56.7073 45.3334 56V30.7734L52.1334 26.2134C52.5002 25.9718 52.8017 25.6434 53.0111 25.2572C53.2204 24.8711 53.3311 24.4393 53.3334 24V8.00004C53.3334 7.2928 53.0525 6.61452 52.5524 6.11442C52.0523 5.61433 51.374 5.33337 50.6667 5.33337ZM24.0001 5.33337C20.4639 5.33337 17.0725 6.73813 14.572 9.23862C12.0715 11.7391 10.6667 15.1305 10.6667 18.6667V34.6667C10.6667 35.374 10.9477 36.0522 11.4478 36.5523C11.9479 37.0524 12.6262 37.3334 13.3334 37.3334H21.3334V56C21.3334 56.7073 21.6144 57.3856 22.1145 57.8857C22.6146 58.3858 23.2928 58.6667 24.0001 58.6667C24.7073 58.6667 25.3856 58.3858 25.8857 57.8857C26.3858 57.3856 26.6667 56.7073 26.6667 56V8.00004C26.6667 7.2928 26.3858 6.61452 25.8857 6.11442C25.3856 5.61433 24.7073 5.33337 24.0001 5.33337ZM21.3334 32H16.0001V18.6667C15.9992 17.0116 16.5117 15.397 17.4669 14.0454C18.4221 12.6938 19.773 11.6717 21.3334 11.12V32Z" fill="#929292"/>
</g>
</svg>
