<svg width="64" height="64" viewBox="0 0 64 64" fill="none" xmlns="http://www.w3.org/2000/svg">
<g id="Objects &#38; Things/key-skeleton-alt">
<path id="Vector" d="M57.8933 17.4133L54.1067 13.6533L57.8933 9.8933C58.3955 9.39116 58.6776 8.7101 58.6776 7.99997C58.6776 7.28983 58.3955 6.60878 57.8933 6.10663C57.3912 5.60449 56.7102 5.32239 56 5.32239C55.2899 5.32239 54.6088 5.60449 54.1067 6.10663L26 34.2133C23.2428 32.3942 19.9085 31.6633 16.6431 32.1623C13.3778 32.6613 10.4139 34.3547 8.32584 36.9142C6.23776 39.4738 5.17412 42.7173 5.34102 46.0163C5.50792 49.3154 6.89348 52.435 9.22923 54.7707C11.565 57.1065 14.6846 58.4921 17.9836 58.659C21.2827 58.8259 24.5262 57.7622 27.0857 55.6741C29.6453 53.586 31.3386 50.6222 31.8376 47.3568C32.3366 44.0915 31.6058 40.7572 29.7867 38L42.8 24.96L46.56 28.7466C46.8092 28.9938 47.1047 29.1893 47.4296 29.322C47.7545 29.4547 48.1024 29.522 48.4533 29.52C48.8043 29.522 49.1522 29.4547 49.4771 29.322C49.802 29.1893 50.0975 28.9938 50.3467 28.7466C50.5966 28.4987 50.795 28.2038 50.9304 27.8788C51.0658 27.5539 51.1355 27.2053 51.1355 26.8533C51.1355 26.5013 51.0658 26.1527 50.9304 25.8278C50.795 25.5028 50.5966 25.2079 50.3467 24.96L46.56 21.3333L50.3467 17.5466L54.1067 21.3333C54.3559 21.5805 54.6514 21.776 54.9763 21.9087C55.3012 22.0414 55.6491 22.1087 56 22.1066C56.351 22.1087 56.6989 22.0414 57.0238 21.9087C57.3487 21.776 57.6442 21.5805 57.8933 21.3333C58.164 21.0836 58.38 20.7805 58.5278 20.4432C58.6756 20.1059 58.7518 19.7416 58.7518 19.3733C58.7518 19.005 58.6756 18.6407 58.5278 18.3034C58.38 17.9661 58.164 17.663 57.8933 17.4133ZM18.6667 53.3333C17.0844 53.3333 15.5377 52.8641 14.2221 51.9851C12.9065 51.106 11.8811 49.8566 11.2756 48.3948C10.6701 46.933 10.5117 45.3244 10.8204 43.7726C11.1291 42.2207 11.891 40.7953 13.0098 39.6764C14.1286 38.5576 15.5541 37.7957 17.106 37.487C18.6578 37.1783 20.2663 37.3368 21.7281 37.9423C23.19 38.5478 24.4394 39.5731 25.3184 40.8887C26.1975 42.2043 26.6667 43.751 26.6667 45.3333C26.6667 47.455 25.8238 49.4899 24.3235 50.9902C22.8232 52.4904 20.7884 53.3333 18.6667 53.3333Z" fill="#929292"/>
</g>
</svg>
