<svg width="64" height="64" viewBox="0 0 64 64" fill="none" xmlns="http://www.w3.org/2000/svg">
<g id="Objects &#38; Things/bed">
<path id="Vector" d="M18.6667 33.3333C20.249 33.3333 21.7957 32.8641 23.1113 31.9851C24.4269 31.106 25.4523 29.8566 26.0578 28.3948C26.6633 26.933 26.8217 25.3245 26.513 23.7726C26.2043 22.2208 25.4424 20.7953 24.3236 19.6765C23.2048 18.5577 21.7793 17.7957 20.2275 17.4871C18.6756 17.1784 17.0671 17.3368 15.6053 17.9423C14.1435 18.5478 12.894 19.5732 12.015 20.8888C11.1359 22.2044 10.6667 23.7511 10.6667 25.3333C10.6667 27.4551 11.5096 29.4899 13.0099 30.9902C14.5102 32.4905 16.545 33.3333 18.6667 33.3333ZM18.6667 22.6667C19.1942 22.6667 19.7097 22.8231 20.1483 23.1161C20.5868 23.4091 20.9286 23.8256 21.1304 24.3128C21.3323 24.8001 21.3851 25.3363 21.2822 25.8536C21.1793 26.3709 20.9253 26.846 20.5524 27.219C20.1794 27.5919 19.7043 27.8459 19.187 27.9488C18.6697 28.0517 18.1335 27.9988 17.6463 27.797C17.159 27.5952 16.7425 27.2534 16.4495 26.8149C16.1565 26.3763 16.0001 25.8608 16.0001 25.3333C16.0001 24.6261 16.281 23.9478 16.7811 23.4477C17.2812 22.9476 17.9595 22.6667 18.6667 22.6667ZM53.3334 17.3333H32.0001C31.2928 17.3333 30.6146 17.6143 30.1145 18.1144C29.6144 18.6145 29.3334 19.2928 29.3334 20V36H8.00008V14.6667C8.00008 13.9594 7.71913 13.2811 7.21903 12.781C6.71894 12.281 6.04066 12 5.33341 12C4.62617 12 3.94789 12.281 3.4478 12.781C2.9477 13.2811 2.66675 13.9594 2.66675 14.6667V49.3333C2.66675 50.0406 2.9477 50.7189 3.4478 51.219C3.94789 51.7191 4.62617 52 5.33341 52C6.04066 52 6.71894 51.7191 7.21903 51.219C7.71913 50.7189 8.00008 50.0406 8.00008 49.3333V41.3333H56.0001V49.3333C56.0001 50.0406 56.281 50.7189 56.7811 51.219C57.2812 51.7191 57.9595 52 58.6667 52C59.374 52 60.0523 51.7191 60.5524 51.219C61.0525 50.7189 61.3334 50.0406 61.3334 49.3333V25.3333C61.3334 23.2116 60.4906 21.1768 58.9903 19.6765C57.49 18.1762 55.4551 17.3333 53.3334 17.3333ZM56.0001 36H34.6667V22.6667H53.3334C54.0407 22.6667 54.7189 22.9476 55.219 23.4477C55.7191 23.9478 56.0001 24.6261 56.0001 25.3333V36Z" fill="#929292"/>
</g>
</svg>
