<svg width="64" height="64" viewBox="0 0 64 64" fill="none" xmlns="http://www.w3.org/2000/svg">
<g id="Objects &#38; Things/drill">
<path id="Vector" d="M50.6668 10.6666H24.0002C23.2929 10.6666 22.6146 10.9476 22.1145 11.4477C21.6144 11.9478 21.3335 12.626 21.3335 13.3333V18.6666H8.00016C7.29292 18.6666 6.61464 18.9476 6.11454 19.4477C5.61445 19.9478 5.3335 20.626 5.3335 21.3333C5.3335 22.0405 5.61445 22.7188 6.11454 23.2189C6.61464 23.719 7.29292 24 8.00016 24H21.3335V34.6666C21.3335 35.3739 21.6144 36.0521 22.1145 36.5522C22.6146 37.0523 23.2929 37.3333 24.0002 37.3333C24.7074 37.3333 25.3857 37.0523 25.8858 36.5522C26.3859 36.0521 26.6668 35.3739 26.6668 34.6666V32H37.3335V50.6666C37.3335 51.3739 37.6144 52.0521 38.1145 52.5522C38.6146 53.0523 39.2929 53.3333 40.0002 53.3333H45.3335C47.4552 53.3333 49.4901 52.4904 50.9904 50.9901C52.4906 49.4899 53.3335 47.455 53.3335 45.3333V31.52C54.8896 30.9698 56.2375 29.9518 57.1923 28.6055C58.1472 27.2592 58.6622 25.6505 58.6668 24V18.6666C58.6668 16.5449 57.824 14.5101 56.3237 13.0098C54.8234 11.5095 52.7886 10.6666 50.6668 10.6666ZM48.0002 45.3333C48.0002 46.0405 47.7192 46.7188 47.2191 47.2189C46.719 47.719 46.0407 48 45.3335 48H42.6668V32H48.0002V45.3333ZM53.3335 24C53.3335 24.7072 53.0525 25.3855 52.5525 25.8856C52.0524 26.3857 51.3741 26.6666 50.6668 26.6666H26.6668V16H42.6668V18.6666C42.6668 19.3739 42.9478 20.0521 43.4479 20.5522C43.948 21.0523 44.6263 21.3333 45.3335 21.3333C46.0407 21.3333 46.719 21.0523 47.2191 20.5522C47.7192 20.0521 48.0002 19.3739 48.0002 18.6666V16H50.6668C51.3741 16 52.0524 16.2809 52.5525 16.781C53.0525 17.2811 53.3335 17.9594 53.3335 18.6666V24Z" fill="#929292"/>
</g>
</svg>
