<svg width="64" height="64" viewBox="0 0 64 64" fill="none" xmlns="http://www.w3.org/2000/svg">
<g id="Objects &#38; Things/table-tennis">
<path id="Vector" d="M55.2268 42.9333L50.8535 38.56C50.4707 38.2047 50.2083 37.7388 50.1031 37.2272C49.998 36.7157 50.0552 36.1841 50.2668 35.7066C51.1968 33.7095 51.6878 31.5362 51.7068 29.3333C51.7192 29.2448 51.7192 29.1551 51.7068 29.0666C51.716 25.8757 50.7277 22.7616 48.8802 20.1599C45.3097 15.17 40.5779 11.1246 35.0935 8.37328C31.6146 6.67025 27.6921 6.0916 23.8697 6.71753C20.0472 7.34345 16.5142 9.14295 13.7602 11.8666L11.9735 13.6533C9.22119 16.4177 7.4041 19.975 6.77753 23.8253C6.15096 27.6756 6.74639 31.6255 8.48017 35.1199L8.74684 35.5733C7.32373 37.0496 6.52188 39.0161 6.50684 41.0666C6.51742 42.4816 6.90312 43.8684 7.62459 45.0857C8.34606 46.303 9.37749 47.3071 10.6137 47.9957C11.8498 48.6842 13.2465 49.0326 14.6613 49.0053C16.076 48.9779 17.4582 48.5758 18.6668 47.84C19.1468 48.2133 19.5735 48.6133 20.0535 48.96C21.0629 49.6618 22.1557 50.2351 23.3068 50.6666H23.5468C24.0268 50.8533 24.5335 51.0133 25.0668 51.1733H25.4668C26.2967 51.3864 27.145 51.5204 28.0002 51.5733H28.7468H29.0668H29.6535C30.2135 51.5733 30.7468 51.5733 31.3068 51.4133H31.7602C33.0713 51.1882 34.3454 50.7844 35.5468 50.2133C36.0256 50.0205 36.5501 49.9708 37.0565 50.0702C37.563 50.1696 38.0298 50.4138 38.4002 50.7733L42.2935 54.6666C43.9828 56.3618 46.2737 57.3204 48.6668 57.3333C50.6742 57.3118 52.5915 56.4969 54.0002 55.0666L55.0135 54.0533C56.4844 52.5894 57.3289 50.6112 57.3687 48.5364C57.4085 46.4616 56.6405 44.4525 55.2268 42.9333ZM14.4268 43.7866C13.8994 43.7866 13.3838 43.6302 12.9453 43.3372C12.5068 43.0442 12.165 42.6277 11.9632 42.1404C11.7613 41.6532 11.7085 41.117 11.8114 40.5997C11.9143 40.0824 12.1683 39.6073 12.5412 39.2343C12.9142 38.8614 13.3893 38.6074 13.9066 38.5045C14.4239 38.4016 14.9601 38.4544 15.4473 38.6563C15.9346 38.8581 16.3511 39.1999 16.6441 39.6384C16.9371 40.077 17.0935 40.5925 17.0935 41.1199C17.0935 41.8272 16.8126 42.5055 16.3125 43.0056C15.8124 43.5057 15.1341 43.7866 14.4268 43.7866ZM22.6935 44.16L22.0002 43.6266C22.2778 42.8198 22.422 41.9732 22.4268 41.1199C22.4268 38.9982 21.584 36.9634 20.0837 35.4631C18.5834 33.9628 16.5486 33.1199 14.4268 33.1199C14.0802 33.1199 13.7602 33.1199 13.4135 33.1199L13.1735 32.6933C11.9332 30.1987 11.5054 27.3783 11.9502 24.6282C12.395 21.8781 13.6901 19.3363 15.6535 17.36L17.4402 15.5733C19.4419 13.6547 21.992 12.408 24.7354 12.0065C27.4789 11.605 30.2793 12.0688 32.7468 13.3333C37.2264 15.5739 41.1174 18.8346 44.1068 22.8533L22.6935 44.16ZM51.4402 50.4799L50.4535 51.4933C49.3335 52.6133 47.6002 52.4 46.1602 50.96L42.2668 47.0933C41.1203 45.9542 39.6556 45.1891 38.0658 44.8987C36.4759 44.6084 34.8353 44.8063 33.3602 45.4666C32.5194 45.8786 31.6198 46.1575 30.6935 46.2933C30.1839 46.3906 29.6656 46.4353 29.1468 46.4266H28.2402H27.9735L46.2935 28.1066C46.4802 29.9337 46.1668 31.7772 45.3868 33.4399C44.7266 34.9151 44.5286 36.5557 44.8189 38.1455C45.1093 39.7354 45.8744 41.2001 47.0135 42.3466L51.3868 46.7466C51.8826 47.2381 52.1659 47.9044 52.1759 48.6024C52.1859 49.3004 51.9217 49.9745 51.4402 50.4799Z" fill="#929292"/>
</g>
</svg>
