<svg width="64" height="64" viewBox="0 0 64 64" fill="none" xmlns="http://www.w3.org/2000/svg">
<g id="Objects &#38; Things/telescope">
<path id="Vector" d="M58.4001 20.24L55.7334 9.92002C55.4618 8.89516 54.9892 7.93451 54.343 7.09392C53.6968 6.25333 52.89 5.54957 51.9695 5.02354C51.0489 4.49751 50.033 4.15971 48.9808 4.02978C47.9285 3.89985 46.8609 3.98038 45.8401 4.26669L40.6934 5.65335C40.3529 5.74307 40.0336 5.89932 39.7538 6.11309C39.474 6.32687 39.2394 6.59393 39.0633 6.89887C38.8873 7.20381 38.7734 7.5406 38.7282 7.88978C38.683 8.23897 38.7075 8.59365 38.8001 8.93335L39.4934 11.6L11.1734 19.0934C10.4916 19.2749 9.9096 19.7192 9.55473 20.3289C9.19987 20.9387 9.1011 21.6642 9.28007 22.3467L9.9734 25.0134L7.30673 25.7067C6.59949 25.7951 5.95633 26.1608 5.51875 26.7234C5.08116 27.286 4.88499 27.9994 4.9734 28.7067C5.0618 29.4139 5.42754 30.0571 5.99015 30.4947C6.55276 30.9323 7.26616 31.1284 7.9734 31.04C8.20368 31.0677 8.43645 31.0677 8.66673 31.04L11.3334 30.32L12.0267 32.9867C12.2105 33.66 12.6509 34.2344 13.2534 34.5867C13.6572 34.8264 14.1172 34.9551 14.5867 34.96C14.8161 35.0004 15.0507 35.0004 15.2801 34.96L24.0001 32.2134V33.3334C24.0019 34.5174 24.2756 35.6852 24.8001 36.7467L11.4667 50.08C10.9646 50.5786 10.6811 51.2563 10.6786 51.9639C10.6761 52.6716 10.9548 53.3512 11.4534 53.8534C11.952 54.3555 12.6297 54.639 13.3373 54.6415C14.0449 54.644 14.7246 54.3653 15.2267 53.8667L28.5601 40.5334L29.3067 40.8267V57.3334C29.3067 58.0406 29.5877 58.7189 30.0878 59.219C30.5879 59.7191 31.2662 60 31.9734 60C32.6806 60 33.3589 59.7191 33.859 59.219C34.3591 58.7189 34.6401 58.0406 34.6401 57.3334V40.8534C34.9042 40.7629 35.1625 40.656 35.4134 40.5334L48.7467 53.8667C49.2489 54.3653 49.9285 54.644 50.6362 54.6415C51.3438 54.639 52.0215 54.3555 52.5201 53.8534C53.0187 53.3512 53.2974 52.6716 53.2949 51.9639C53.2924 51.2563 53.0089 50.5786 52.5067 50.08L39.1734 36.7467C39.691 35.6815 39.973 34.5173 40.0001 33.3334V28L43.6001 27.04L44.2667 29.7067C44.423 30.2885 44.7716 30.8002 45.2559 31.1585C45.7401 31.5168 46.3314 31.7006 46.9334 31.68H47.6267L52.7734 30.2934C53.8136 30.0203 54.7881 29.5404 55.6386 28.8822C56.4891 28.224 57.1982 27.401 57.7235 26.4626C58.2487 25.5241 58.5793 24.4894 58.6956 23.4202C58.8118 22.3511 58.7113 21.2694 58.4001 20.24ZM34.6667 33.3334C34.664 34.0199 34.3965 34.679 33.9201 35.1734C33.4257 35.6498 32.7666 35.9173 32.0801 35.92C31.3805 35.9171 30.7101 35.6393 30.2134 35.1467C29.7207 34.65 29.443 33.9796 29.4401 33.28V30.6134L34.6667 29.3334V33.3334ZM16.5067 28.6934L15.1201 23.5467L40.8801 16.64L41.5734 19.3067L42.2667 21.9734L16.5067 28.6934ZM52.9867 23.6267C52.8119 23.9327 52.5781 24.2011 52.2989 24.4162C52.0197 24.6313 51.7006 24.789 51.3601 24.88L48.6934 25.5734L46.6134 17.84L45.3334 12.6934L44.6401 10.0267L47.3067 9.33335C47.6464 9.24075 48.0011 9.21634 48.3503 9.26152C48.6995 9.30671 49.0363 9.4206 49.3412 9.59662C49.6462 9.77265 49.9132 10.0073 50.127 10.2871C50.3408 10.5669 50.497 10.8862 50.5867 11.2267L53.2534 21.5467C53.3518 21.8934 53.3789 22.2565 53.3331 22.614C53.2873 22.9715 53.1694 23.316 52.9867 23.6267Z" fill="#929292"/>
</g>
</svg>
