<svg width="64" height="64" viewBox="0 0 64 64" fill="none" xmlns="http://www.w3.org/2000/svg">
<g id="Objects &#38; Things/robot">
<path id="Vector" d="M23.9998 40C23.4724 40 22.9568 40.1564 22.5183 40.4495C22.0798 40.7425 21.738 41.1589 21.5362 41.6462C21.3343 42.1335 21.2815 42.6697 21.3844 43.187C21.4873 43.7042 21.7413 44.1794 22.1142 44.5523C22.4872 44.9253 22.9623 45.1792 23.4796 45.2821C23.9969 45.385 24.5331 45.3322 25.0203 45.1304C25.5076 44.9286 25.9241 44.5868 26.2171 44.1482C26.5101 43.7097 26.6665 43.1941 26.6665 42.6667C26.6665 41.9595 26.3855 41.2812 25.8855 40.7811C25.3854 40.281 24.7071 40 23.9998 40ZM5.33317 37.3334C4.62593 37.3334 3.94765 37.6143 3.44755 38.1144C2.94746 38.6145 2.6665 39.2928 2.6665 40V45.3334C2.6665 46.0406 2.94746 46.7189 3.44755 47.219C3.94765 47.7191 4.62593 48 5.33317 48C6.04041 48 6.71869 47.7191 7.21879 47.219C7.71889 46.7189 7.99984 46.0406 7.99984 45.3334V40C7.99984 39.2928 7.71889 38.6145 7.21879 38.1144C6.71869 37.6143 6.04041 37.3334 5.33317 37.3334ZM58.6665 37.3334C57.9593 37.3334 57.281 37.6143 56.7809 38.1144C56.2808 38.6145 55.9998 39.2928 55.9998 40V45.3334C55.9998 46.0406 56.2808 46.7189 56.7809 47.219C57.281 47.7191 57.9593 48 58.6665 48C59.3737 48 60.052 47.7191 60.5521 47.219C61.0522 46.7189 61.3332 46.0406 61.3332 45.3334V40C61.3332 39.2928 61.0522 38.6145 60.5521 38.1144C60.052 37.6143 59.3737 37.3334 58.6665 37.3334ZM45.3332 18.6667H34.6665V15.2534C35.4726 14.788 36.1428 14.1198 36.6106 13.3152C37.0785 12.5105 37.3275 11.5974 37.3332 10.6667C37.3332 9.25222 36.7713 7.89566 35.7711 6.89547C34.7709 5.89528 33.4143 5.33337 31.9998 5.33337C30.5853 5.33337 29.2288 5.89528 28.2286 6.89547C27.2284 7.89566 26.6665 9.25222 26.6665 10.6667C26.6721 11.5974 26.9212 12.5105 27.389 13.3152C27.8569 14.1198 28.5271 14.788 29.3332 15.2534V18.6667H18.6665C16.5448 18.6667 14.5099 19.5096 13.0096 21.0099C11.5094 22.5101 10.6665 24.545 10.6665 26.6667V50.6667C10.6665 52.7884 11.5094 54.8233 13.0096 56.3236C14.5099 57.8239 16.5448 58.6667 18.6665 58.6667H45.3332C47.4549 58.6667 49.4897 57.8239 50.99 56.3236C52.4903 54.8233 53.3332 52.7884 53.3332 50.6667V26.6667C53.3332 24.545 52.4903 22.5101 50.99 21.0099C49.4897 19.5096 47.4549 18.6667 45.3332 18.6667ZM36.5865 24L35.2532 29.3334H28.7465L27.4132 24H36.5865ZM47.9998 50.6667C47.9998 51.374 47.7189 52.0522 47.2188 52.5523C46.7187 53.0524 46.0404 53.3334 45.3332 53.3334H18.6665C17.9593 53.3334 17.281 53.0524 16.7809 52.5523C16.2808 52.0522 15.9998 51.374 15.9998 50.6667V26.6667C15.9998 25.9595 16.2808 25.2812 16.7809 24.7811C17.281 24.281 17.9593 24 18.6665 24H21.9198L23.9998 32.64C24.1458 33.2317 24.4901 33.7555 24.9753 34.1243C25.4605 34.493 26.0573 34.6845 26.6665 34.6667H37.3332C37.9423 34.6845 38.5392 34.493 39.0244 34.1243C39.5096 33.7555 39.8538 33.2317 39.9998 32.64L42.0798 24H45.3332C46.0404 24 46.7187 24.281 47.2188 24.7811C47.7189 25.2812 47.9998 25.9595 47.9998 26.6667V50.6667ZM39.9998 40C39.4724 40 38.9568 40.1564 38.5183 40.4495C38.0798 40.7425 37.738 41.1589 37.5362 41.6462C37.3343 42.1335 37.2815 42.6697 37.3844 43.187C37.4873 43.7042 37.7413 44.1794 38.1142 44.5523C38.4872 44.9253 38.9623 45.1792 39.4796 45.2821C39.9969 45.385 40.5331 45.3322 41.0203 45.1304C41.5076 44.9286 41.9241 44.5868 42.2171 44.1482C42.5101 43.7097 42.6665 43.1941 42.6665 42.6667C42.6665 41.9595 42.3855 41.2812 41.8855 40.7811C41.3854 40.281 40.7071 40 39.9998 40Z" fill="#929292"/>
</g>
</svg>
