<svg width="326" height="165" viewBox="0 0 326 165" fill="none" xmlns="http://www.w3.org/2000/svg">
<g clip-path="url(#clip0_740_5345)">
<path d="M237.289 140.301C244.822 140.301 252.354 140.301 259.886 140.301C260.606 140.301 261.319 140.222 261.992 140.183C262.352 137.153 262.243 126.92 261.82 125.268C261.139 125.236 260.403 125.181 259.667 125.174C254.327 125.166 248.987 125.174 243.647 125.158C242.864 125.158 242.089 125.025 241.369 124.962C241.001 122.316 241.087 112.544 241.502 110.869C242.175 110.83 242.911 110.759 243.639 110.759C248.228 110.751 252.816 110.759 257.404 110.751C258.124 110.751 258.837 110.665 259.534 110.618V107.933C257.639 107.933 255.877 107.925 254.115 107.925C252.338 107.925 250.553 107.925 248.776 107.925C246.998 107.925 245.213 107.87 243.436 107.94C241.69 108.003 239.912 107.635 238.229 108.199C237.798 111.573 237.963 126.505 238.472 128.016C240.742 128.016 243.068 128.016 245.393 128.016C247.656 128.016 249.911 128.016 252.174 128.016C254.483 128.024 256.785 128.047 259.017 128.063C259.549 130.161 259.51 135.438 258.946 137.2C258.281 137.2 257.545 137.2 256.801 137.2C249.269 137.2 241.737 137.2 234.205 137.2C233.476 137.2 232.756 137.271 232.012 137.302V158.411C236.773 158.411 241.416 158.434 246.051 158.411C250.678 158.379 255.306 158.559 259.956 158.293V155.67C257.122 155.655 254.405 155.639 251.68 155.631C248.87 155.631 246.067 155.647 243.256 155.631C240.539 155.616 237.814 155.725 235.191 155.545C234.533 153.713 234.502 142.258 235.144 140.316C235.81 140.316 236.553 140.316 237.297 140.316L237.289 140.301Z" fill="black"/>
<path d="M120.447 11.8073C121.034 13.0444 121.699 14.2423 122.271 15.4873C122.576 16.145 122.749 16.8731 122.937 17.4447C122.334 18.2825 121.864 18.9402 121.457 19.5039C121.582 21.0933 121.895 22.3774 123.508 22.7689C127.196 20.7018 128.214 17.8988 126.64 14.1484C126.295 13.3263 125.849 12.5511 125.458 11.7525C124.917 10.6485 124.299 9.568 123.86 8.42486C123.062 6.37348 123.532 4.80754 125.403 3.65657C126.671 2.8736 128.088 2.31769 129.451 1.68349C130.046 1.40945 130.672 1.19021 131.283 0.947493C131.267 0.743921 131.244 0.540349 131.228 0.336776C130.375 0.219331 129.506 -0.0468793 128.66 0.0157584C127.306 0.109715 125.927 0.289798 124.628 0.673454C120.243 1.96535 118.419 5.3243 119.632 9.71676C119.828 10.4371 120.133 11.1339 120.447 11.8151V11.8073Z" fill="black"/>
<path d="M238.057 134.139C240.046 134.139 242.026 134.139 244.015 134.139C246.004 134.139 247.985 134.162 249.974 134.139C251.923 134.115 253.896 134.264 255.807 134.037V131.437C254.945 131.398 254.209 131.343 253.473 131.343C248.063 131.343 242.653 131.343 237.242 131.328C236.459 131.328 235.677 131.163 234.901 131.077C234.807 130.443 234.698 130.044 234.698 129.644C234.69 121.909 234.682 114.173 234.698 106.437C234.698 105.928 234.886 105.411 234.988 104.879C235.622 104.801 236.091 104.691 236.561 104.691C244.845 104.683 253.137 104.683 261.421 104.691C261.93 104.691 262.446 104.863 263.002 104.965V114.001C262.031 114.048 261.295 114.118 260.559 114.118C256.042 114.126 251.516 114.118 246.998 114.126C246.27 114.126 245.534 114.196 244.767 114.235V116.952C246.622 116.952 248.329 116.952 250.028 116.952C251.806 116.952 253.591 116.952 255.368 116.952C257.083 116.952 258.79 116.984 260.505 116.945C262.251 116.905 264.02 117.132 265.696 116.772C266.095 114.024 265.985 103.532 265.563 102.045C265.39 101.998 265.195 101.896 264.999 101.896C254.656 101.88 244.313 101.872 233.97 101.865C233.422 101.865 232.881 101.919 232.333 101.958C232.271 101.958 232.208 102.005 232.153 102.045C232.098 102.084 232.051 102.139 232.004 102.186C231.691 104.722 231.785 132.393 232.161 134.139C234.079 134.139 236.052 134.139 238.025 134.139H238.057Z" fill="black"/>
<path d="M226.046 164.424H265.993C266.479 162.513 266.447 151.317 265.938 149.508C265.257 149.477 264.521 149.414 263.785 149.414C257.075 149.414 250.357 149.414 243.647 149.399C242.864 149.399 242.081 149.266 241.071 149.179V143.894C240.421 143.84 240.022 143.777 239.615 143.785C239.153 143.793 238.691 143.871 238.268 143.91C237.869 146.275 237.939 150.675 238.425 152.249C239.129 152.249 239.873 152.249 240.625 152.249C247.405 152.249 254.186 152.249 260.966 152.256C261.757 152.256 262.548 152.358 263.472 152.421C263.527 155.498 263.558 158.332 263.472 161.112C261.64 161.503 231.284 161.566 228.818 161.175V146.345C228.818 141.412 228.818 136.487 228.818 131.555C228.818 126.622 228.833 121.697 228.818 116.764C228.794 111.863 228.919 106.954 228.732 101.974H225.983C225.553 104.159 225.623 162.874 226.046 164.416V164.424Z" fill="black"/>
<path d="M130.03 11.2277C130.782 12.269 131.659 13.2321 132.473 14.2343C132.966 14.845 133.444 15.4714 133.922 16.0743C132.904 17.7655 131.996 19.2688 131.126 20.7094C132.591 22.2128 132.998 22.3693 135.276 22.3145C136.451 20.7408 137.656 19.261 138.189 17.3662C138.69 15.5732 138.385 13.9524 137.022 12.6605C136.341 12.0106 135.519 11.5017 134.712 11.0006C133.734 10.3977 132.708 9.86531 131.886 9.40335C131.753 8.72217 131.667 8.29154 131.541 7.61035C130.782 7.97835 130.203 8.26022 129.756 8.47162C129.349 9.5991 129.49 10.4839 130.03 11.2277Z" fill="black"/>
<path d="M306.786 149.383C305.572 149.72 304.202 149.783 302.949 149.626C298.541 149.062 294.493 147.434 290.735 145.077C290.297 144.803 289.811 144.591 289.263 144.31C286.671 148.475 284.158 152.531 281.512 156.782C283.633 157.996 285.528 159.233 287.54 160.196C293.859 163.226 300.444 164.917 307.561 164.236C315.352 163.492 321.905 157.503 323.635 150.385C325.358 143.3 323.596 137.075 318.115 132.134C315.493 129.77 312.306 128.29 309.01 127.084C307.146 126.403 305.236 125.855 303.372 125.174C301.415 124.461 299.645 123.451 298.479 121.69C297.985 118.088 299.262 116.553 302.707 116.491C306.574 116.42 310.121 117.618 313.543 119.239C315.14 119.998 316.659 120.922 318.194 121.76C319.564 120.476 322.375 115.911 322.758 114.337C317.45 110.971 311.828 108.528 305.47 107.807C302.143 107.432 299.058 107.854 296.114 109.326C292.959 110.908 290.766 113.461 289.85 116.835C288.206 122.872 290.336 128.008 295.973 131.297C298.197 132.596 300.647 133.591 303.098 134.405C305.846 135.321 308.485 136.425 310.975 137.866C312.016 138.469 312.956 139.33 313.754 140.246C316.479 143.386 315.547 149.172 313.167 151.85C310.239 155.146 306.504 156.14 302.386 155.42C299.371 154.895 296.459 153.815 293.499 152.977C292.857 152.797 292.223 152.586 291.447 152.343C290.986 153.11 290.586 153.783 290.156 154.488C290.516 154.786 290.696 154.997 290.923 155.115C295.926 157.62 301.188 158.904 306.794 158.333C308.775 158.129 310.685 157.518 312.4 156.461C316.643 153.838 318.397 149.861 318.405 145.03C318.405 141.968 317.411 139.283 315.109 137.122C313.637 135.744 312.04 134.601 310.16 133.888C307.538 132.894 304.907 131.931 302.26 130.999C299.857 130.146 297.508 129.159 295.597 127.444C292.919 125.048 291.581 122.05 292.465 118.44C293.428 114.533 295.895 111.855 299.88 111.08C302.057 110.657 304.39 110.657 306.606 110.908C310.45 111.339 314.005 112.842 317.434 114.588C317.904 114.823 318.327 115.152 318.898 115.528C318.374 116.357 317.928 117.078 317.434 117.861C316.041 117.258 314.858 116.741 313.66 116.24C309.847 114.643 305.972 113.398 301.736 113.703C297.461 114.009 294.305 118.268 295.488 122.245C295.918 123.686 296.764 124.876 298.048 125.589C299.888 126.614 301.775 127.617 303.748 128.353C306.629 129.433 309.636 130.185 312.329 131.727C316.44 134.076 319.721 137.177 320.973 141.929C322.931 149.321 318.624 158.34 309.785 160.744C306.614 161.605 303.325 161.723 300.021 161.104C296.701 160.478 293.515 159.468 290.422 158.168C288.872 157.518 287.227 156.962 286.014 155.741C286.491 154.026 289.161 149.728 290.555 148.42C291.134 148.702 291.729 149.054 292.356 149.289C294.853 150.221 297.312 151.294 299.872 151.967C302.44 152.64 305.071 152.969 307.765 152.116C312.462 150.62 313.637 145.116 310.998 142.008C310.176 141.045 309.127 140.175 308.015 139.573C306.528 138.758 304.875 138.242 303.286 137.607C300.687 136.566 297.993 135.713 295.503 134.452C288.754 131.038 285.074 124.336 286.758 117.187C288.159 111.268 291.745 107.338 297.476 105.56C301.094 104.441 304.844 104.315 308.618 105.208C313.261 106.312 317.591 108.097 321.725 110.438C322.61 110.939 323.51 111.409 324.544 111.973C325.045 111.112 325.475 110.383 325.969 109.538C320.292 106.108 314.639 103.274 308.25 102.209C304.014 101.505 299.833 101.465 295.715 103.008C290.171 105.098 286.46 108.911 284.463 114.463C283.563 116.968 283.485 119.544 283.563 122.159C283.633 124.68 284.362 126.99 285.661 129.143C287.744 132.573 290.555 135.266 294.149 136.965C297.234 138.422 300.475 139.549 303.662 140.771C305.33 141.413 306.982 142.039 308.266 143.362C310.254 145.414 309.526 148.585 306.747 149.36L306.786 149.383Z" fill="black"/>
<path d="M148.18 158.732C148.822 158.771 149.221 158.826 149.62 158.802C150.082 158.779 150.536 158.685 151.077 158.606C151.437 156.297 151.773 154.081 152.126 151.857C152.486 149.563 152.854 147.277 153.222 144.983C153.574 142.759 153.919 140.535 154.295 138.312C154.67 136.096 154.717 133.802 155.665 131.312C161.678 142.61 167.511 153.564 173.289 164.424H176.625C169.054 150.213 161.584 136.206 153.903 121.791C151.946 134.405 150.067 146.517 148.172 158.724L148.18 158.732Z" fill="black"/>
<path d="M46.9729 131.97C44.0602 131.61 8.75607 131.735 7.22928 132.103V134.569H9.83657C20.5241 134.569 31.2038 134.569 41.8914 134.577C42.6822 134.577 43.4651 134.687 44.1933 134.742C44.6083 137.349 44.4987 159.687 44.0759 161.269H40.8187C40.5368 157.299 40.7248 153.478 40.6856 149.665C40.6465 145.852 40.7169 142.039 40.6465 138.296C38.5403 137.811 8.88917 137.842 7.25276 138.265C6.86911 140.739 6.97873 157.228 7.38587 158.685H10.1419C10.1419 156.563 10.1419 154.59 10.1419 152.617C10.1419 150.698 10.0949 148.78 10.1576 146.87C10.2202 144.92 9.88355 142.939 10.4081 140.943C10.9719 140.872 11.4417 140.77 11.9036 140.77C19.9839 140.763 28.0719 140.763 36.1522 140.77C36.669 140.77 37.1857 140.927 37.9061 141.037V164.244C40.114 164.643 45.5009 164.604 47.0981 164.197C47.1451 163.892 47.2391 163.563 47.2391 163.234C47.2469 153.235 47.2547 143.245 47.2391 133.246C47.2391 132.8 47.059 132.353 46.965 131.954L46.9729 131.97Z" fill="black"/>
<path d="M184.306 148.741C182.873 151.403 181.73 154.245 179.694 156.962C169.962 138.641 160.378 120.601 150.709 102.389C148.963 110.689 141.289 162.349 141.477 164.447C145.807 164.745 154.85 164.627 156.581 164.197C157.513 158.215 158.452 152.155 159.4 146.079C158.703 144.717 158.014 143.393 157.137 141.686C155.884 148.467 155.218 154.942 153.997 161.229C151.139 161.629 146.206 161.519 144.586 161.002C147.076 144.811 149.565 128.58 152.055 112.349C152.251 112.333 152.447 112.317 152.635 112.302C155.657 117.962 158.695 123.608 161.701 129.276C164.716 134.953 167.66 140.676 170.729 146.329C173.767 151.928 176.609 157.636 179.937 163.375C182.842 157.863 185.598 152.672 188.33 147.465C189.685 144.881 189.716 143.66 188.581 140.763C187.148 143.456 185.739 146.11 184.314 148.757L184.306 148.741Z" fill="black"/>
<path d="M205.156 122.668C204.123 115.731 203.175 108.786 201.978 101.857H195.197C189.552 112.513 183.977 123.02 178.387 133.583C179.044 134.428 179.138 135.532 180.234 136.237C185.895 125.636 191.494 115.152 197.06 104.722H199.276C199.449 105.192 199.652 105.56 199.707 105.952C200.145 108.716 200.553 111.487 200.967 114.259C202.111 121.893 203.238 129.535 204.405 137.161C205.556 144.654 206.746 152.147 207.905 159.64C207.983 160.149 207.865 160.681 207.834 161.261H204.781C202.259 144.881 199.77 128.65 197.272 112.411C197.154 112.403 197.037 112.395 196.92 112.388C196.207 113.687 195.495 114.995 194.923 116.044C197.421 132.361 199.871 148.357 202.306 164.275C204.718 164.69 209.964 164.62 211.467 164.173C210.418 157.236 209.369 150.283 208.312 143.331C207.263 136.44 206.182 129.558 205.156 122.668Z" fill="black"/>
<path d="M192.347 121.627C192.331 121.572 192.261 121.517 192.198 121.501C192.151 121.486 192.081 121.517 191.971 121.541C187.868 128.791 184.087 136.268 179.757 143.887C172.17 129.644 164.771 115.778 157.364 101.88H154.036C162.696 118.15 171.168 134.052 179.757 150.189C183.539 143.565 186.764 137.036 190.64 130.78C191.885 136.346 192.582 141.945 193.506 147.496C194.437 153.133 195.064 158.826 196.183 164.416H198.603C198.697 164.118 198.83 163.923 198.806 163.743C196.755 150.025 194.696 136.315 192.629 122.605C192.582 122.277 192.449 121.955 192.347 121.627Z" fill="black"/>
<path d="M210.974 70.1464C204.882 65.1746 198.799 60.1792 192.676 55.2387C184.423 48.5834 176.1 42.0143 167.895 35.2964C165.013 32.9318 161.631 33.1824 159.298 35.1398C155.634 38.2169 151.86 41.1687 148.117 44.1518C142.292 48.8026 136.451 53.4378 130.61 58.073C126.272 61.5181 121.895 64.9083 117.589 68.4004C116.164 69.5514 114.911 70.9137 113.611 72.2135C112.969 72.8555 112.868 73.6306 113.322 74.4762C113.619 74.5389 113.878 74.625 114.144 74.6485C115.898 74.8051 117.393 74.0691 118.724 73.106C121.66 70.9842 124.55 68.7919 127.392 66.5369C134.141 61.1736 140.843 55.7554 147.569 50.3686C151.304 47.3776 155.062 44.4023 158.805 41.4114C160.347 40.1821 161.866 38.9216 163.502 37.5748C169.343 41.9047 174.91 46.0936 180.548 50.1885C186.138 54.2521 191.83 58.1748 197.421 62.2384C204.06 67.0615 213.425 73.3879 214.951 73.889C214.474 73.3175 214.176 72.8712 213.793 72.5266C212.876 71.7045 211.929 70.9216 210.974 70.1386V70.1464Z" fill="black"/>
<path d="M99.9016 152.327C108.914 152.836 119.022 145.507 118.983 133.019C118.943 120.484 109.188 113.734 100.058 113.68C88.987 113.617 80.3978 121.603 80.3117 133.121C80.2334 143.808 89.2845 152.726 99.9016 152.335V152.327ZM99.8624 116.514C108.264 116.663 116.227 122.848 116.125 133.082C116.031 142.477 109.336 149.32 99.7998 149.281C89.1201 149.226 83.4357 140.919 83.3183 133.152C83.1852 124.766 90.2397 116.577 99.8624 116.514Z" fill="black"/>
<path d="M47.2547 128.235C47.2547 127.335 47.2547 126.591 47.2547 125.855C47.2547 119.63 47.2469 113.398 47.2703 107.173C47.2703 106.39 47.4348 105.607 47.5287 104.816C48.1551 104.73 48.5544 104.636 48.9616 104.636C49.4313 104.636 49.9011 104.715 50.7389 104.785C50.8094 105.873 50.9112 106.805 50.919 107.737C50.9268 125.737 50.919 143.738 50.9346 161.738C50.9346 162.607 51.0051 163.469 51.0521 164.385H53.4401C53.4401 163.445 53.4401 162.646 53.4401 161.84C53.4401 150.612 53.4401 139.392 53.4401 128.164C53.4401 120.225 53.4401 112.286 53.4401 104.347C53.4401 103.556 53.3462 102.765 53.2914 102.037C50.5275 101.606 45.9393 101.716 44.5848 102.201C44.2637 105.216 44.3812 126.661 44.7413 128.243H47.2703L47.2547 128.235Z" fill="black"/>
<path d="M99.7685 164.447C117.244 164.502 131.275 150.346 131.314 133.168C131.354 116.162 118.442 101.622 99.7842 101.559C82.0734 101.504 68.4888 115.911 68.2696 132.87C68.3479 149.978 82.1986 164.393 99.7763 164.447H99.7685ZM99.5884 104.354C115.819 104.292 128.558 116.584 128.519 133.011C128.48 150.487 114.199 161.801 99.8938 161.433C83.8037 161.856 71.1196 147.95 71.3075 132.784C71.4876 118.37 82.5353 104.417 99.5884 104.354Z" fill="black"/>
<path d="M16.202 164.189C16.5152 161.386 16.4056 145.875 16.0532 144.317H13.2267C13.2267 146.345 13.2267 148.185 13.2267 150.033C13.2267 151.951 13.2659 153.869 13.2189 155.78C13.1719 157.596 13.4694 159.444 12.9918 161.206C10.6429 161.621 5.63973 161.535 4.19907 161.08C3.8389 158.888 3.92503 106.445 4.33217 104.761C7.17435 104.55 10.0635 104.55 13.0231 104.769C13.4068 106.844 13.1797 108.754 13.2189 110.649C13.258 112.568 13.1954 114.478 13.2345 116.396C13.2737 118.283 13.0388 120.194 13.4225 122.128H16.0689C16.4917 120.076 16.4526 103.603 16.0219 101.943H1.03586C0.699188 105.576 0.832293 162.787 1.15331 164.338C3.54137 164.729 14.7848 164.627 16.1942 164.204L16.202 164.189Z" fill="black"/>
<path d="M100.841 72.8555C103.331 71.1643 105.829 69.4809 108.295 67.7505C111.482 65.5112 114.645 63.2249 117.816 60.9543C119.993 59.3962 121.457 57.3213 121.488 54.6201C121.543 49.7657 121.402 44.9113 121.285 40.0647C121.23 37.9585 120.964 35.8445 121.981 33.9262C124.017 33.3546 134.587 33.4094 136.169 34.0045C136.255 34.255 136.451 34.576 136.451 34.8892C136.482 36.7997 136.466 38.7101 136.466 40.691C134.572 42.7816 131.573 44.0813 131.275 47.542C132.356 48.0666 133.358 48.0353 134.29 47.5107C135.597 46.7747 136.936 46.0466 138.111 45.1227C145.04 39.6654 151.914 34.1376 158.836 28.6646C160.323 27.4823 161.905 26.4175 163.448 25.2978C166.196 26.7307 168.482 28.461 170.713 30.2462C173.65 32.5873 176.429 35.1398 179.381 37.4652C184.909 41.8263 190.468 46.164 196.105 50.3842C204.812 56.9064 213.581 63.3424 222.343 69.7941C224.198 71.1564 226.109 72.4405 227.996 73.7637C227.996 73.1608 227.823 72.7302 227.51 72.4562C224.825 70.1229 222.123 67.8131 219.406 65.5112C215.186 61.9252 210.966 58.3314 206.722 54.7767C202.22 50.9949 197.679 47.2523 193.161 43.4941C187.853 39.0703 182.505 34.7013 177.275 30.1992C174.104 27.4745 170.847 24.875 167.362 22.5731C166.141 21.7666 164.857 21.1872 163.048 20.968C161.905 21.5631 160.425 22.1425 159.165 23.0429C157.058 24.554 155.101 26.2766 153.065 27.8816C149.205 30.9274 145.33 33.9653 141.07 37.3164C140.984 36.1028 140.961 35.2885 140.874 34.4899C140.522 31.3502 138.526 29.4084 135.378 29.1266C134.83 29.0796 134.282 29.0718 133.734 29.0796C130.461 29.0874 127.18 29.0796 123.907 29.1422C122.89 29.1657 121.848 29.3145 120.877 29.5964C119.147 30.0975 117.832 31.1858 117.315 32.9788C117.033 33.9575 116.79 34.9988 116.822 36.001C116.939 40.37 117.158 44.739 117.346 49.108C117.425 50.8853 117.565 52.6548 117.55 54.4322C117.534 55.7554 117.158 56.9847 116.046 57.8929C114.567 59.1143 113.118 60.3593 111.693 61.6433C107.63 65.3155 103.589 69.0033 99.5493 72.6989C99.2909 72.9338 99.1265 73.2783 98.9229 73.568C99.009 73.6698 99.0952 73.7715 99.1891 73.8733C99.745 73.5367 100.317 73.2235 100.857 72.8555H100.841Z" fill="black"/>
<path d="M10.1497 125.072V119.191C10.1497 117.273 10.1888 115.355 10.1418 113.444C10.0949 111.558 10.3611 109.647 9.95392 107.799C9.0509 107.695 8.24183 107.765 7.52671 108.011C7.14306 110.915 7.27616 126.348 7.7068 127.804C9.82865 128.203 38.9082 128.125 40.6933 127.648V114.838C40.6933 112.716 40.7168 110.594 40.6933 108.473C40.662 106.312 40.8499 104.143 40.5524 101.935H37.8981V107.94C37.8981 109.858 37.8981 111.769 37.8981 113.687C37.8981 115.605 37.9295 117.524 37.8903 119.434C37.8512 121.321 38.0704 123.224 37.6946 125.283H30.7966C28.5338 125.283 26.2789 125.283 24.0161 125.283C21.6907 125.283 19.3574 125.322 17.032 125.275C14.8083 125.228 12.5612 125.487 10.1732 125.072H10.1497Z" fill="black"/>
<path d="M99.3066 158.332C104.106 158.52 108.663 157.244 112.829 154.785C118.576 151.387 122.389 146.47 124.142 140.034C125.442 135.258 125.387 130.419 124.142 125.643C122.639 119.865 119.46 115.214 114.41 111.91C109.971 109.005 105.108 107.674 99.8077 107.846C98.2418 107.94 96.6367 107.885 95.1021 108.167C89.3394 109.217 84.438 111.824 80.5388 116.302C75.3869 122.206 73.4686 129.12 74.5647 136.707C76.3029 148.757 86.3406 157.831 99.3144 158.34L99.3066 158.332ZM98.5706 110.704C110.292 109.788 120.838 118.557 122.122 130.263C123.618 143.839 113.416 155.067 100.575 155.537C88.1414 155.991 77.9315 146.384 77.3286 133.81C76.7257 121.376 86.5912 111.096 98.5706 110.712V110.704Z" fill="black"/>
</g>
<defs>
<clipPath id="clip0_740_5345">
<rect width="325.16" height="164.612" fill="white" transform="translate(0.84021)"/>
</clipPath>
</defs>
</svg>
