<svg width="21" height="12" viewBox="0 0 21 12" fill="none" xmlns="http://www.w3.org/2000/svg">
<path d="M2.20999 10.29C2.11488 10.199 2.00274 10.1276 1.87999 10.08C1.63653 9.97998 1.36345 9.97998 1.11999 10.08C0.997237 10.1276 0.885092 10.199 0.789988 10.29C0.698948 10.3851 0.627583 10.4972 0.579988 10.62C0.503409 10.8021 0.482486 11.0028 0.51986 11.1968C0.557235 11.3908 0.651231 11.5694 0.789988 11.71C0.887189 11.7983 0.998803 11.8694 1.11999 11.92C1.23969 11.9729 1.36912 12.0002 1.49999 12.0002C1.63086 12.0002 1.76029 11.9729 1.87999 11.92C2.00117 11.8694 2.11279 11.7983 2.20999 11.71C2.34875 11.5694 2.44274 11.3908 2.48012 11.1968C2.51749 11.0028 2.49657 10.8021 2.41999 10.62C2.37239 10.4972 2.30103 10.3851 2.20999 10.29ZM5.49999 2H19.5C19.7652 2 20.0196 1.89464 20.2071 1.70711C20.3946 1.51957 20.5 1.26522 20.5 1C20.5 0.734784 20.3946 0.48043 20.2071 0.292893C20.0196 0.105357 19.7652 0 19.5 0H5.49999C5.23477 0 4.98042 0.105357 4.79288 0.292893C4.60535 0.48043 4.49999 0.734784 4.49999 1C4.49999 1.26522 4.60535 1.51957 4.79288 1.70711C4.98042 1.89464 5.23477 2 5.49999 2ZM2.20999 5.29C2.06936 5.15124 1.89079 5.05725 1.6968 5.01987C1.50281 4.9825 1.3021 5.00342 1.11999 5.08C0.998803 5.13064 0.887189 5.20167 0.789988 5.29C0.698948 5.3851 0.627583 5.49725 0.579988 5.62C0.527083 5.7397 0.499756 5.86913 0.499756 6C0.499756 6.13087 0.527083 6.2603 0.579988 6.38C0.63063 6.50118 0.701657 6.6128 0.789988 6.71C0.887189 6.79833 0.998803 6.86936 1.11999 6.92C1.23969 6.97291 1.36912 7.00023 1.49999 7.00023C1.63086 7.00023 1.76029 6.97291 1.87999 6.92C2.00117 6.86936 2.11279 6.79833 2.20999 6.71C2.29832 6.6128 2.36935 6.50118 2.41999 6.38C2.47289 6.2603 2.50022 6.13087 2.50022 6C2.50022 5.86913 2.47289 5.7397 2.41999 5.62C2.37239 5.49725 2.30103 5.3851 2.20999 5.29ZM19.5 5H5.49999C5.23477 5 4.98042 5.10536 4.79288 5.29289C4.60535 5.48043 4.49999 5.73478 4.49999 6C4.49999 6.26522 4.60535 6.51957 4.79288 6.70711C4.98042 6.89464 5.23477 7 5.49999 7H19.5C19.7652 7 20.0196 6.89464 20.2071 6.70711C20.3946 6.51957 20.5 6.26522 20.5 6C20.5 5.73478 20.3946 5.48043 20.2071 5.29289C20.0196 5.10536 19.7652 5 19.5 5ZM2.20999 0.29C2.11488 0.198959 2.00274 0.127594 1.87999 0.0799999C1.69788 0.00342049 1.49716 -0.0175019 1.30317 0.0198722C1.10919 0.0572463 0.930612 0.151242 0.789988 0.29C0.701657 0.387201 0.63063 0.498815 0.579988 0.62C0.527083 0.7397 0.499756 0.869129 0.499756 1C0.499756 1.13087 0.527083 1.2603 0.579988 1.38C0.63063 1.50119 0.701657 1.6128 0.789988 1.71C0.887189 1.79833 0.998803 1.86936 1.11999 1.92C1.3021 1.99658 1.50281 2.0175 1.6968 1.98013C1.89079 1.94275 2.06936 1.84876 2.20999 1.71C2.29832 1.6128 2.36935 1.50119 2.41999 1.38C2.47289 1.2603 2.50022 1.13087 2.50022 1C2.50022 0.869129 2.47289 0.7397 2.41999 0.62C2.36935 0.498815 2.29832 0.387201 2.20999 0.29ZM19.5 10H5.49999C5.23477 10 4.98042 10.1054 4.79288 10.2929C4.60535 10.4804 4.49999 10.7348 4.49999 11C4.49999 11.2652 4.60535 11.5196 4.79288 11.7071C4.98042 11.8946 5.23477 12 5.49999 12H19.5C19.7652 12 20.0196 11.8946 20.2071 11.7071C20.3946 11.5196 20.5 11.2652 20.5 11C20.5 10.7348 20.3946 10.4804 20.2071 10.2929C20.0196 10.1054 19.7652 10 19.5 10Z" fill="#1B1B1B"/>
</svg>
