<svg width="64" height="32" viewBox="0 0 64 32" fill="none" xmlns="http://www.w3.org/2000/svg">
<path d="M33.0033 20.7353L40.5366 13.1886C40.6616 13.0647 40.7608 12.9172 40.8285 12.7548C40.8962 12.5923 40.931 12.418 40.931 12.242C40.931 12.066 40.8962 11.8917 40.8285 11.7292C40.7608 11.5667 40.6616 11.4193 40.5366 11.2953C40.2868 11.047 39.9489 10.9076 39.5966 10.9076C39.2444 10.9076 38.9064 11.047 38.6566 11.2953L31.99 17.8953L25.39 11.2953C25.1401 11.047 24.8022 10.9076 24.45 10.9076C24.0977 10.9076 23.7598 11.047 23.51 11.2953C23.384 11.4188 23.2838 11.5661 23.2151 11.7286C23.1464 11.8911 23.1107 12.0656 23.11 12.242C23.1107 12.4184 23.1464 12.5929 23.2151 12.7554C23.2838 12.9179 23.384 13.0652 23.51 13.1886L31.0433 20.7353C31.1682 20.8707 31.3197 20.9787 31.4884 21.0525C31.657 21.1264 31.8392 21.1646 32.0233 21.1646C32.2074 21.1646 32.3896 21.1264 32.5582 21.0525C32.7269 20.9787 32.8784 20.8707 33.0033 20.7353Z" fill="#1B1B1B"/>
</svg>
